<svg id="Layer_1" data-name="Layer 1" xmlns="http://www.w3.org/2000/svg" viewBox="0 0 668.84 305.59"><title>gif-store</title><path d="M63,429a208.77,208.77,0,0,1,8.52-50.33c2.94-10.18,5.24-20.65,8.84-30.83,3.93-10.47,9.17-20.07,15.06-29.67,6.22-10.47,12.77-20.95,19.32-31.13,10.81-16.87,24.23-32,38.31-46.83a13,13,0,0,1,12.12-4.65c6.87.87,13.42,1.74,20,4.07,8.19,3.2,13.43,12.8,12.45,19.49-1,6.4-.33,12.22,1,18.32a24.92,24.92,0,0,1-1,16.88,49.16,49.16,0,0,0-2.3,6.4c-.65,1.16-1,2.61-1.63,3.49-4.26,5.52-7.86,8.43-14.08,1.45L176,302.15c-2.94-3.49-4.25-7.27-1.31-11.64a12.81,12.81,0,0,0,2.62-9c-.32-1.75,1-4.37-2-4.95-1.64-.29-3.28,1.46-3.6,2.91-5.9,14-18,24.44-24.56,37.53-3.6,6.4-7.21,12.5-10.15,19.19-4.26,7.86-8.52,15.42-13.43,23-5.24,8.43-8.18,17.74-10.8,27.05-2.62,10.47-5.57,20.65-7.21,31.12-1,9-3.27,17.75-3.93,26.77-.33,4.07-.33,8.43,1,12.21a195.76,195.76,0,0,0,8.19,23c2.29,5.82,5.57,7.57,12.44,5.53,8.84-2.33,17-5.82,21.29-13.67,2.29-3.78,4.58-7.27,6.55-11.05,4.25-8.73,8.51-17.75,13.1-26.48a33.12,33.12,0,0,0,3.92-16.87c0-3.78.33-7.56.33-11.34,0-1.46.33-3.2-.65-3.78-4.59-3.79-3.28-7,.65-10.48,1.31-1.45,1.64-3.49,3-5.23a5.4,5.4,0,0,1,4.91-2.91,47.08,47.08,0,0,0,6.55-.29c2.29-.29,3.93-2.33,6.22-1.46s3.6,2.91,4.59,5c2.62,5.23,6.87,9.31,11.46,12.8,10.15,7.56,12.77,16.87,7.86,27.63a39.29,39.29,0,0,1-2.3,5.53,49.34,49.34,0,0,0-6.22,28.8c.66,7,1,14.25,1.64,21.23,0,2.33.33,4.66,0,6.69-2.29,8.73-1.64,17.17-1,25.89.32,4.66,0,8.44-2.95,12.8-2.29,4.08-4.26,8.44-8.19,12.22-1.63,1.75-3.27,1.45-5.56,0-3.28-1.75-4.91-4.65-6.55-7.56-3.6-6.69-5.57-13.68-7.21-20.95l-.65-4.94c-1-3.2-3-4.07-5.9-2-9.82,7-21.28,9.31-33.07,11.35a45.25,45.25,0,0,1-28.81-4.37c-4.26-2-8.52-4.65-12.77-7a35.69,35.69,0,0,1-17.69-20.07A222.45,222.45,0,0,1,65.3,452C63.34,443.82,64,436,63,429Zm148.34-7.27c1.64-1.17,2.29-2.33,1.64-4.08-.33-1.16-1-2-2.3-1.74-.32,0-1,.58-1.31,1.16-.65,1.17-1.31,2.62,0,3.78C209.71,421.12,210.37,421.12,211.35,421.71Z" transform="translate(-63.01 -235.42)"/><path d="M386.54,274.52c0,7-4.92,10.76-9.83,15.12-5.89,5.24-12.44,7.27-20.63,8.44-15.39,1.74-31.11.87-46.5,1.74a74.15,74.15,0,0,0-8.18.29c-2.3,0-3.6,1.46-3.6,3.2,0,3.49.32,7,.32,10.48-.32,17.74-.32,35.19-2.29,52.94-2.95,21.52-5.89,43.34-5.89,65.16-.33,6.4-2.62,12.8-.33,19.49.33.87,1,1.74,1.31,2.62,5.24,1.16,9.17-1.75,13.75-3.2,6.22-2,11.79-4.66,18.67-2.91-1,1.74-2,3.49,2,3.78a35.86,35.86,0,0,0,5.57.29h-.33c-6.22,3.2-6.22,3.2-4.58,8.15,1,1.16,3.93,2,.65,3.78l-7.53,2.61c-4.26,1.75-8.84,2.62-10.15,7.57,0,1.16-2,2-3.28,2.62-10.47,5.81-21.28,11.34-33.07,15.12a7.45,7.45,0,0,1-2.29.88c-18,4.65-22.27,3.78-33.07-10.48-2.95-4.07-1.64-7.56,3.93-9,13.75-3.79,17.68-8.44,17.68-20.95a18.65,18.65,0,0,0-1-7.27c-4.59-14-4.26-28.51-3.93-43.05.32-16.58,1.31-33.17,2.29-49.75.65-13.67,2.29-27.05,2.29-40.43v-5.24c-.33-2-1.31-2.91-3.93-2.91-3.27.3-6.22.88-8.84,2.62l-10.48,6.11c-3.27,2-6.22,2-9.82.58-8.52-4.07-13.76-13.09-11.14-22.1a55.74,55.74,0,0,1,5.9-15.42c2.29-3.49,4.58-5.53,8.84-6.11,9.17-1.16,18.34-4.07,27.51-4.07,1,0,1.63-.29,2.62-.29,4.25.29,7.2-4.37,11.78-2.91a48,48,0,0,0,12.77,1.45H342c9.83,0,19.65.58,29.15.58,4.25,0,7.53,2,11.46,2.33,1.63.29,2.94,2.33,4.25,3.49C388.5,271.61,386.21,273.06,386.54,274.52Zm-96,179.77,33.07-6.4h-.32v-.29Z" transform="translate(-63.01 -235.42)"/><path d="M459.23,365c-1.31,4.37-2.29,7.28-5.24,9.31-1.64,1.46-3.28,2.91-3.28,5.24a4.37,4.37,0,0,1-2.29,3.49c-8.84,5.53-16.37,12.8-27.5,14.83-4.26.59-5.57,3.2-6.23,6.4-2,10.18-4.25,20.37-6.22,30.84a48.09,48.09,0,0,1-3.6,11.63c-2.29,5.53-2.62,11.64-3.93,17.46-.33,2.91-2.29,5.82-3.27,8.43-4.26,11.64-14.08,20.95-16.38,32.87-.65,3.2-5.24,3.2-5.89,6.11-1.31,4.37-5.9,7-7.2,11.64-.66,2-5.24,2-6.88,0a14.21,14.21,0,0,1-3.6-9.6c0-6.4-.33-13.09.32-19.78,1.64-15.42,3.28-30.84,6.23-46.25,2.94-17.17,4.91-34.33,7.85-51.49,2.95-16.87,6.23-34,9.83-50.91,2.62-11.34,4.26-22.4,7.86-33.45,1.31-4.07,1-7.85-4.26-10.76-4.58-2.33-8.19-6.11-12.44-9-1.64-1.46-2.3-2.62-2-4.66s2.29-2.61,4.26-2.9a29.91,29.91,0,0,1,5.57-1.17,13.67,13.67,0,0,1,3.27.87c7.53.59,9.5-.58,12.44-7a75.08,75.08,0,0,0,2.95-7.85c1.31-3.49,4.26-4.95,7.86-4.95a80.29,80.29,0,0,0,11.79-.58c7.53-1.16,13.75.29,17.68,7,2,3.79,3.28,3.79,7.53,2.62,29.8-8.43,59.93-15.12,90.38-20.65,7.86-1.46,15.39-.87,22.92-.29,1.64,0,2,.87,2,2a1.65,1.65,0,0,1-.33,1.75c-1.31.87-2.62,2-3.93,2.33a10.1,10.1,0,0,0-6.88,5.23c-2,3.49-5.56,4.66-9.49,5.24l-13.76,2.62a13.67,13.67,0,0,0-3.27.87c-6.55,5.23-15.39,6.11-23.25,9-4.26,1.45-7.53,4.65-12.12,6.11-13.1,4.65-25.54,9.89-39.29,13.38-5.24,1.16-8.19,3.78-9.17,9-1,4.66-2.29,9.31-2.62,14.26a8.36,8.36,0,0,1-.65,4.07c-5.9,10.47-5.9,22.11-9.83,32.87a10.57,10.57,0,0,0-.33,3.2c-1,5.24.33,6.4,5.9,5.53,6.55-.87,12.77-2,19.32-3.2C452.68,366.15,455.3,365.86,459.23,365Z" transform="translate(-63.01 -235.42)"/><path d="M466.37,458.77q4.41,1.78,7.92,3.62a23.47,23.47,0,0,1,6,4.41,17.47,17.47,0,0,1,3.88,6.19,27.76,27.76,0,0,1-.58,18.78,20.67,20.67,0,0,1-5.72,7.66,26.17,26.17,0,0,1-9.28,4.93A42,42,0,0,1,456,506.09a56.87,56.87,0,0,1-11.49-1,71.73,71.73,0,0,1-10.75-3.26,59.22,59.22,0,0,1,1.47-7.81c.69-2.77,1.53-5.58,2.51-8.45q9.66,4.2,16.79,4.2a17.75,17.75,0,0,0,8.35-1.63q3-1.64,3-5.62a6.15,6.15,0,0,0-.63-2.88,6.42,6.42,0,0,0-1.68-2.05,10.47,10.47,0,0,0-2.36-1.41c-.88-.39-1.77-.75-2.68-1.11l-5.88-2.2a37.91,37.91,0,0,1-6.87-3.25,22.21,22.21,0,0,1-5.3-4.46,18.91,18.91,0,0,1-3.41-5.93,23.37,23.37,0,0,1-1.21-7.87,24.26,24.26,0,0,1,1.89-9.86,20.67,20.67,0,0,1,5.3-7.3,22.81,22.81,0,0,1,8.24-4.51,36,36,0,0,1,10.81-1.52,50.09,50.09,0,0,1,10.34,1.05,85.21,85.21,0,0,1,10.65,3,52.88,52.88,0,0,1-1.53,7.4,46.37,46.37,0,0,1-2.78,7.61q-2.73-1.16-6.4-2.42a28.44,28.44,0,0,0-9.13-1.26,15.78,15.78,0,0,0-3.2.32,9.33,9.33,0,0,0-2.73,1,5.3,5.3,0,0,0-1.94,1.88,5.7,5.7,0,0,0-.73,3,5.23,5.23,0,0,0,2,4.51,20,20,0,0,0,4.72,2.52Z" transform="translate(-63.01 -235.42)"/><path d="M507.3,445.76H489.77a36.1,36.1,0,0,1,0-16.37h53.62c.28,1.54.49,3,.63,4.3a36.18,36.18,0,0,1,.21,3.78,49.44,49.44,0,0,1-.84,8.29H525.87v58.76a57.21,57.21,0,0,1-9.23,1,56,56,0,0,1-9.34-1Z" transform="translate(-63.01 -235.42)"/><path d="M621.36,429.6c3.42-.35,6.59-.68,9.49-1a86.55,86.55,0,0,1,9.18-.47,61.88,61.88,0,0,1,11.55,1.1,30.82,30.82,0,0,1,10.28,3.83,21.41,21.41,0,0,1,7.35,7.45,23,23,0,0,1,2.83,12,25.37,25.37,0,0,1-.89,7,24.27,24.27,0,0,1-2.31,5.51,22.36,22.36,0,0,1-3.15,4.2,28.83,28.83,0,0,1-3.41,3l16.37,32.32q-2.52.42-5.51.63t-5.4.21c-1.4,0-3-.07-4.88-.21a40.67,40.67,0,0,1-4.88-.63l-14.9-34.31.94-.53a11.69,11.69,0,0,0,2.78-2.1,19.23,19.23,0,0,0,2.84-3.51,22.76,22.76,0,0,0,2.2-4.57,15.63,15.63,0,0,0,.89-5.24q0-5.25-2.94-7.66a11,11,0,0,0-7.24-2.42,12.72,12.72,0,0,0-1.78.11,3.9,3.9,0,0,0-.95.21v60a56.69,56.69,0,0,1-9.12,1,56,56,0,0,1-9.34-1Z" transform="translate(-63.01 -235.42)"/><path d="M725.77,465.49a40.33,40.33,0,0,1-.95,8.18H704.57v14.9h26.34a38.39,38.39,0,0,1,.94,8,39.68,39.68,0,0,1-.94,8.29H686V429.39h44.28c.28,1.54.49,3,.63,4.3a36.18,36.18,0,0,1,.21,3.78,49.44,49.44,0,0,1-.84,8.29H704.57V457.3h20.25A41.47,41.47,0,0,1,725.77,465.49Z" transform="translate(-63.01 -235.42)"/><g id="ARPMde.tif"><path d="M537.2,465.9a41.07,41.07,0,1,1,41.11,41A41,41,0,0,1,537.2,465.9Zm8.18-.12a32.88,32.88,0,0,0,65.76.18c.18-18-14.62-32.87-32.79-33A33,33,0,0,0,545.38,465.78Z" transform="translate(-63.01 -235.42)"/><path d="M570.06,484.33v-37l24.64,18.48Z" transform="translate(-63.01 -235.42)"/></g></svg>